<svg xmlns="http://www.w3.org/2000/svg" viewBox="0 0 1480.09 458.29">
  <defs>
    <style>
      .cls-1 {
        fill: #25408f;
      }

      .cls-2 {
        fill: #ffd600;
      }

      .cls-3 {
        fill: #ed2124;
      }

      .cls-4 {
        fill: #31ab4a;
      }

      .cls-5 {
        fill: #27aae1;
      }

      .cls-6 {
        fill: #9d56a2;
      }

      .cls-7 {
        fill: #231f20;
      }

      .cls-8 {
        fill: none;
      }
    </style>
  </defs>
  <title>Asset 7</title>
  <g id="Layer_2" data-name="Layer 2">
    <g id="Layer_1-2" data-name="Layer 1">
      <path class="cls-1" d="M1165.24,433.79h8.85V424l6-6.9,9.87,16.7h9.8L1185.3,411l13.17-15.68h-9.88L1174.32,413h-.23V378.45h-8.85Zm-39.49-19.2c0,12.78,8.07,20.14,18.57,20.14A19.37,19.37,0,0,0,1157,429.8l-3.77-5.73a12.67,12.67,0,0,1-7.92,3.3c-6,0-10.27-5.1-10.27-12.78s4.31-12.86,10.51-12.86a9.59,9.59,0,0,1,6.51,2.82l4.31-5.72a15.9,15.9,0,0,0-11.3-4.46c-10.27,0-19.27,7.36-19.27,20.22m-32.56,8.15c0-3.84,3.45-6.58,13.88-7.92v8.63c-2.81,2.66-5.25,4.23-8.41,4.23s-5.47-1.48-5.47-4.94m-8.78.7c0,6.75,4.71,11.29,11.44,11.29,4.55,0,8.48-2.27,11.93-5.16h.23l.7,4.22h7.37V411c0-10.74-4.7-16.6-14.35-16.6a29.79,29.79,0,0,0-15.75,5l3.29,6c3.37-2,7-3.77,10.81-3.77,5.19,0,6.91,3.46,7,7.53-15.77,1.73-22.66,6-22.66,14.27m-34,.63v-18c3-2.9,5.64-4.31,8.46-4.31,5.81,0,8.32,4.55,8.32,12.23,0,8.71-3.91,13.26-9,13.26a12,12,0,0,1-7.77-3.22m-9,9.72h7.12l.78-3.91h.23c3.22,3.12,7,4.85,10.52,4.85,8.55,0,16.45-7.6,16.45-20.86,0-11.84-5.55-19.5-15.2-19.5-3.92,0-7.92,1.95-11.14,4.76l.24-6.41V378.45h-9Zm-38.13-19.28c0-8.08,4-12.71,9-12.71A11.43,11.43,0,0,1,1020,405v18c-2.58,3-5.09,4.31-8.08,4.31-5.57,0-8.71-4.47-8.71-12.78m-9.32.08c0,12.7,6.18,20.14,15.84,20.14,4.15,0,8.08-2.27,10.9-5.09h.31l.63,4.15H1029V378.45h-9V392.4l.32,6.19c-3-2.58-5.73-4.22-10.12-4.22-8.4,0-16.31,7.66-16.31,20.22m-32.76-3.45c.79-6.44,4.7-9.81,9.26-9.81,5.26,0,7.85,3.69,7.85,9.81Zm-8.7,3.44c0,12.71,8.31,20.15,19,20.15a24.3,24.3,0,0,0,13.17-4.15l-3.05-5.64a16,16,0,0,1-8.94,2.82c-6.19,0-10.58-3.92-11.37-10.9h24.46a19.15,19.15,0,0,0,.39-4.23c0-10.75-5.47-18.26-15.91-18.26-9,0-17.72,7.66-17.72,20.21M920,411.14c.78-6.44,4.71-9.81,9.26-9.81,5.24,0,7.84,3.69,7.84,9.81Zm-8.69,3.44c0,12.71,8.29,20.15,19,20.15a24.3,24.3,0,0,0,13.16-4.15l-3-5.64a16,16,0,0,1-8.94,2.82c-6.19,0-10.59-3.92-11.38-10.9h24.46a19.67,19.67,0,0,0,.4-4.23c0-10.75-5.49-18.26-15.91-18.26-9,0-17.71,7.66-17.71,20.21m-1.93-35.74a19.61,19.61,0,0,0-7.06-1.34c-9.1,0-12.78,5.8-12.78,13.8v4l-5.16.4v6.72h5.16v31.37h9V402.42H906V395.3h-7.52v-4.15c0-4.48,1.72-6.52,4.86-6.52a10.82,10.82,0,0,1,4.23.94Zm-74.72,35.67c0-8.08,4-12.71,8.94-12.71a11.47,11.47,0,0,1,7.85,3.22v18c-2.59,3-5.1,4.31-8.09,4.31-5.57,0-8.7-4.47-8.7-12.78m-9.32.08c0,12.7,6.19,20.14,15.83,20.14,4.15,0,8.09-2.27,10.9-5.09h.33l.62,4.15h7.43V378.45h-9V392.4l.31,6.19c-3-2.58-5.73-4.22-10.12-4.22-8.39,0-16.3,7.66-16.3,20.22m-42.75,19.2h9v-26.9c3.21-3.12,5.41-4.77,8.78-4.77,4.23,0,6,2.34,6,8.7v23h9V409.64c0-9.72-3.61-15.27-11.84-15.27-5.26,0-9.17,2.73-12.63,6.1h-.31L790,395.3h-7.43Zm-34.88-11.05c0-3.84,3.45-6.58,13.89-7.92v8.63c-2.83,2.66-5.26,4.23-8.41,4.23s-5.48-1.48-5.48-4.94m-8.78.7c0,6.75,4.7,11.29,11.45,11.29,4.54,0,8.48-2.27,11.92-5.16h.23l.71,4.22h7.36V411c0-10.74-4.7-16.6-14.33-16.6a29.86,29.86,0,0,0-15.77,5l3.3,6c3.36-2,7-3.77,10.81-3.77,5.19,0,6.91,3.46,7,7.53-15.78,1.73-22.67,6-22.67,14.27M693,433.79h9.09v-43.6h14.74v-7.66H678.15v7.66H693Zm-32.9,0h9V395.3h-9Zm4.53-45.24c3.22,0,5.57-2.12,5.57-5.08s-2.35-5.18-5.57-5.18S659,380.4,659,383.47s2.36,5.08,5.56,5.08m-42.69,26c0-8.08,4-12.71,8.94-12.71a11.47,11.47,0,0,1,7.85,3.22v18c-2.59,3-5.11,4.31-8.09,4.31-5.56,0-8.7-4.47-8.7-12.78m-9.31.08c0,12.7,6.18,20.14,15.82,20.14,4.15,0,8.08-2.27,10.9-5.09h.33l.62,4.15h7.43V378.45h-9V392.4l.31,6.19c-3-2.58-5.73-4.22-10.12-4.22-8.39,0-16.29,7.66-16.29,20.22m-42.85,4.86c0,9.72,3.59,15.28,11.82,15.28,5.34,0,9-2.59,12.39-6.58h.32l.63,5.64h7.43V395.3h-9v26.34c-3,3.77-5.18,5.34-8.56,5.34-4.15,0-6-2.35-6-8.71v-23h-9Zm-34.51,3.29c0-3.84,3.44-6.58,13.88-7.92v8.63c-2.82,2.66-5.25,4.23-8.4,4.23s-5.48-1.48-5.48-4.94m-8.77.7c0,6.75,4.69,11.29,11.43,11.29,4.55,0,8.47-2.27,11.92-5.16h.24l.71,4.22h7.36V411c0-10.74-4.69-16.6-14.34-16.6a29.83,29.83,0,0,0-15.76,5l3.28,6c3.37-2,7-3.77,10.84-3.77,5.16,0,6.89,3.46,7,7.53-15.77,1.73-22.65,6-22.65,14.27"/>
      <path class="cls-1" d="M1457.61,340.61c0,6.67,2.36,10.82,8.77,10.82a12.37,12.37,0,0,0,4.79-.78l-1.18-6.74a5.65,5.65,0,0,1-1.41.15c-.94,0-2-.77-2-3V295.15h-9Zm-34.77-1.17c0-3.84,3.44-6.58,13.87-7.92v8.63c-2.83,2.66-5.25,4.23-8.39,4.23s-5.48-1.48-5.48-4.94m-8.78.7c0,6.75,4.7,11.29,11.44,11.29,4.55,0,8.47-2.27,11.92-5.16h.24l.7,4.21h7.37V327.67c0-10.74-4.71-16.61-14.36-16.61a29.88,29.88,0,0,0-15.75,5l3.29,6c3.37-2,7-3.77,10.81-3.77,5.19,0,6.92,3.45,7,7.53-15.76,1.72-22.65,6-22.65,14.27m-38.17-8.85c0,12.77,8.08,20.14,18.57,20.14a19.31,19.31,0,0,0,12.63-4.94l-3.76-5.72a12.72,12.72,0,0,1-7.92,3.29c-6.05,0-10.28-5.09-10.28-12.77s4.32-12.87,10.51-12.87a9.58,9.58,0,0,1,6.51,2.83l4.3-5.73a15.87,15.87,0,0,0-11.28-4.46c-10.27,0-19.28,7.36-19.28,20.23M1357,350.48h9V312h-9Zm4.54-45.23c3.21,0,5.56-2.12,5.56-5.09s-2.35-5.17-5.56-5.17-5.56,2.11-5.56,5.17,2.35,5.09,5.56,5.09m-49.36,45.23h9V323.59c3.21-3.13,5.4-4.77,8.78-4.77,4.23,0,6,2.34,6,8.7v23h9V326.34c0-9.72-3.6-15.28-11.83-15.28-5.26,0-9.18,2.74-12.63,6.11h-.3l-.64-5.17h-7.44Zm-21.36,0h9V312h-9Zm4.55-45.23c3.2,0,5.55-2.12,5.55-5.09s-2.35-5.17-5.55-5.17-5.57,2.11-5.57,5.17,2.36,5.09,5.57,5.09m-26.7,35.36c0,6.67,2.34,10.82,8.77,10.82a12.38,12.38,0,0,0,4.78-.78l-1.18-6.74a5.65,5.65,0,0,1-1.41.15c-1,0-2-.77-2-3V295.15h-9ZM1220.86,325c0,17,10.25,26.41,23.27,26.41a20.48,20.48,0,0,0,16-7.44l-5-5.56a13.87,13.87,0,0,1-10.82,5.09c-8.53,0-14.1-7.06-14.1-18.74,0-11.53,6-18.59,14.42-18.59,3.91,0,6.82,1.65,9.48,4.23l5-5.64a20.1,20.1,0,0,0-14.58-6.5c-13.18,0-23.66,10-23.66,26.74m-35.28,15.59c0,6.67,2.36,10.82,8.77,10.82a12.35,12.35,0,0,0,4.78-.78l-1.18-6.74a5.63,5.63,0,0,1-1.4.15c-1,0-2-.77-2-3V295.15h-9Zm-34.8-1.17c0-3.84,3.47-6.58,13.9-7.92v8.63c-2.83,2.66-5.26,4.23-8.39,4.23s-5.51-1.48-5.51-4.94m-8.76.7c0,6.75,4.7,11.29,11.44,11.29,4.55,0,8.46-2.27,11.91-5.16h.25l.71,4.21h7.35V327.67c0-10.74-4.69-16.61-14.34-16.61a29.89,29.89,0,0,0-15.76,5l3.3,6c3.36-2,7-3.77,10.81-3.77,5.18,0,6.9,3.45,7,7.53-15.76,1.72-22.66,6-22.66,14.27m-42.88,10.34h9V323.59c3.22-3.13,5.41-4.77,8.78-4.77,4.23,0,6,2.34,6,8.7v23h9V326.34c0-9.72-3.6-15.28-11.83-15.28-5.27,0-9.18,2.74-12.63,6.11h-.31l-.63-5.17h-7.43Zm-37.42-19.19c0-7.77,3.38-12.87,9-12.87s9.11,5.1,9.11,12.87-3.46,12.77-9.11,12.77-9-5.09-9-12.77m-9.24,0c0,12.77,8.7,20.14,18.26,20.14s18.36-7.37,18.36-20.14-8.71-20.23-18.36-20.23-18.26,7.36-18.26,20.23m-18.85,19.19h9V312h-9Zm4.53-45.23c3.22,0,5.56-2.12,5.56-5.09s-2.34-5.17-5.56-5.17-5.56,2.11-5.56,5.17,2.35,5.09,5.56,5.09m-32.52,32.23c0,8.32,3.29,13.95,12.22,13.95a24.36,24.36,0,0,0,7.83-1.41l-1.56-6.65a11.28,11.28,0,0,1-4,.86c-3.7,0-5.42-2.2-5.42-6.75V319.12h9.8V312h-9.8V301.5h-7.52l-1.09,10.5-6,.39v6.73h5.49Zm-17.42,13h9.65l-16.7-51.25H970.51l-16.77,51.25h9.32l4-13.87h17.17Zm-19.11-21,1.8-6.28c1.63-5.42,3.12-11.22,4.53-16.94h.31c1.49,5.65,3.06,11.52,4.63,16.94l1.8,6.28Zm-61.78,21H916V328.06c0-5.72-.7-11.91-1.18-17.32h.32l5.33,10.9,15.92,28.84h9.32V299.23h-8.61v22.25c0,5.73.71,12.24,1.17,17.49h-.31l-5.33-10.9-15.93-28.84h-9.32Zm-43.67-17.86c-3.77,0-6.75-2.82-6.75-7.77s3-7.6,6.75-7.6,6.67,2.82,6.67,7.6c0,4.95-3,7.77-6.67,7.77m-16.45,24.85c0,6.75,6.81,10,16,10,12.55,0,20.53-5.95,20.53-13.56,0-6.66-4.86-9.48-14.09-9.48h-6.84c-4.69,0-6.26-1.33-6.26-3.54a4.46,4.46,0,0,1,1.87-3.68,14.32,14.32,0,0,0,5.26,1c8.16,0,14.58-4.54,14.58-13.1a10.41,10.41,0,0,0-2.19-6.51h7.05V312H869.31a17.56,17.56,0,0,0-5.65-.94c-8.07,0-15.2,4.93-15.2,13.79a13,13,0,0,0,5,10.2v.31c-2.18,1.56-4.22,4.15-4.22,7.14a7.24,7.24,0,0,0,3.44,6.42v.31c-3.52,2.2-5.47,5-5.47,8.24m7.52-1.34c0-1.8.94-3.53,3-5.09a20.59,20.59,0,0,0,5.27.55h5.26c4.39,0,6.81.86,6.81,3.83,0,3.31-4.22,6.2-10.43,6.2s-9.87-2-9.87-5.49m-49.63-5.65h9V323.59c3.21-3.13,5.42-4.77,8.8-4.77,4.23,0,6,2.34,6,8.7v23h9V326.34c0-9.72-3.59-15.28-11.82-15.28-5.26,0-9.18,2.74-12.63,6.11h-.32l-.63-5.17H805.1Zm-21.36,0h9V312h-9Zm4.53-45.23c3.22,0,5.56-2.12,5.56-5.09s-2.34-5.17-5.56-5.17-5.56,2.11-5.56,5.17,2.35,5.09,5.56,5.09m-44,26c0,12.77,8.06,20.14,18.57,20.14a19.31,19.31,0,0,0,12.62-4.94l-3.76-5.72a12.72,12.72,0,0,1-7.92,3.29c-6,0-10.26-5.09-10.26-12.77s4.3-12.87,10.5-12.87a9.54,9.54,0,0,1,6.5,2.83l4.32-5.73a15.93,15.93,0,0,0-11.29-4.46c-10.27,0-19.28,7.36-19.28,20.23m-42.56,19.19h9V323.59c3.22-3.13,5.41-4.77,8.78-4.77,4.24,0,6,2.34,6,8.7v23h9V326.34c0-9.72-3.61-15.28-11.84-15.28-5.25,0-9.17,2.74-12.62,6.11h-.32l-.62-5.17h-7.44Zm-34.88-11c0-3.84,3.45-6.58,13.89-7.92v8.63c-2.82,2.66-5.26,4.23-8.39,4.23s-5.5-1.48-5.5-4.94m-8.76.7c0,6.75,4.69,11.29,11.43,11.29,4.55,0,8.47-2.27,11.93-5.16h.24l.7,4.21h7.35V327.67c0-10.74-4.7-16.61-14.33-16.61a29.77,29.77,0,0,0-15.75,5l3.27,6c3.37-2,7-3.77,10.82-3.77,5.18,0,6.91,3.45,7,7.53-15.76,1.72-22.65,6-22.65,14.27m-42.82,10.34h9V323.59c3.2-3.13,5.41-4.77,8.79-4.77,4.23,0,6,2.34,6,8.7v23h9V326.34c0-9.72-3.59-15.28-11.83-15.28-5.26,0-9.1,2.74-12.32,5.8l.32-7.44V295.15h-9Zm-44.89,0h9V323.59c3.23-3.13,5.42-4.77,8.79-4.77,4.24,0,6,2.34,6,8.7v23h9V326.34c0-9.72-3.6-15.28-11.82-15.28-5.25,0-9.17,2.74-12.64,6.11h-.3l-.63-5.17h-7.44Zm-41.53,0H560.4v-7.67H537.89V327.67h18.43V320H537.89V306.89h21.72v-7.66h-30.8Z"/>
      <path class="cls-2" d="M370.45,125.82l-62.79,20a114.56,114.56,0,0,1,34.64,102L381.9,303l69.46-16.63c21.55-83.88-6-175.43-75.18-233.1Z"/>
      <path class="cls-3" d="M174.39,63.76,174,129a114.53,114.53,0,0,1,107.8-1.47l64.8-20.63,5.62-71.11c-76.79-48.87-172.65-46.45-245.73-.16Z"/>
      <path class="cls-4" d="M371.27,331.58l-38.37-53.5a113.45,113.45,0,0,1-83.85,64.17l-39.83,54.14,37.67,61.54A229.09,229.09,0,0,0,442.07,314.62Z"/>
      <path class="cls-5" d="M178.79,395.09l38.11-51.8a114.6,114.6,0,0,1-90-62.31l-.78.3-65.6-21.75L15.48,312.24a229.25,229.25,0,0,0,202,146.05Z"/>
      <path class="cls-6" d="M6.59,283.74l45.77-53.56,64.54,21.4A113.56,113.56,0,0,1,148.59,148L149,80.6,82.58,53.06a229.24,229.24,0,0,0-76,230.68"/>
      <path class="cls-7" d="M1371.48,247.59h49V71.66h59.63V30.34H1311.5V71.66h60Zm-255-107.29c0,73,46,111.29,102.29,111.29,27,0,51-11,69-32l-27-29.65c-10.66,11.66-23.33,19.32-41.32,19.32-31.65,0-52.64-26-52.64-70.64,0-43.65,23.66-70,54-70,15.33,0,25.64,6.33,36.65,16.33l27-30.33c-14.66-15-37.32-28.32-64.31-28.32-56,0-103.62,42-103.62,114m-61.88,107.29h52l-68.3-217.25H979.64l-68.3,217.25h50l13.33-51.65h66.63Zm-70-90,5.32-20c6-21.66,12-47,17-70h1.34c6,22.66,11.65,48.31,17.64,70l5.34,20Zm-273.38,90h47v-77c0-25.66-4-54.65-6.33-78.63h1.34l21.32,47.31L831.2,247.59h50.32V30.34H834.88V107c0,25.66,4,56.32,6.33,79.31h-1.33l-21.66-48-56.65-108h-50.3Zm-183.49,0H667.39V206.28H577.11v-50h73.95v-41H577.11V71.66h86.95V30.34H527.78Z"/>
      <rect class="cls-8" width="1480.09" height="458.28"/>
    </g>
  </g>
</svg>
