<svg xmlns="http://www.w3.org/2000/svg" viewBox="0 0 1584.87 458.29">
  <defs>
    <style>
      .cls-1 {
        fill: #ffd600;
      }

      .cls-2 {
        fill: #ed2124;
      }

      .cls-3 {
        fill: #31ab4a;
      }

      .cls-4 {
        fill: #27aae1;
      }

      .cls-5 {
        fill: #9d56a2;
      }

      .cls-6 {
        fill: #fff;
      }

      .cls-7 {
        fill: none;
      }
    </style>
  </defs>
  <title>Asset 8</title>
  <g id="Layer_2" data-name="Layer 2">
    <g id="Layer_1-2" data-name="Layer 1">
      <path class="cls-1" d="M370.45,125.82l-62.79,20a114.56,114.56,0,0,1,34.64,102L381.9,303l69.46-16.63c21.55-83.88-6-175.43-75.18-233.1Z"/>
      <path class="cls-2" d="M174.39,63.76,174,129a114.53,114.53,0,0,1,107.8-1.47l64.8-20.63,5.62-71.11c-76.79-48.87-172.65-46.45-245.73-.16Z"/>
      <path class="cls-3" d="M371.27,331.58l-38.37-53.5a113.43,113.43,0,0,1-83.85,64.16l-39.83,54.15,37.67,61.54A229.09,229.09,0,0,0,442.07,314.62Z"/>
      <path class="cls-4" d="M178.79,395.09l38.11-51.8a114.6,114.6,0,0,1-90-62.31l-.78.3-65.6-21.75L15.48,312.24a229.25,229.25,0,0,0,202,146.05Z"/>
      <path class="cls-5" d="M6.59,283.74l45.77-53.56,64.54,21.4A113.56,113.56,0,0,1,148.59,148L149,80.6,82.58,53.06a229.24,229.24,0,0,0-76,230.68"/>
      <path class="cls-6" d="M1464.32,352.61h54.36V157.32h66.19V111.45H1397.74v45.87h66.58Zm-283-119.1c0,81,51,123.54,113.55,123.54,30,0,56.58-12.2,76.56-35.51l-30-32.92c-11.83,12.95-25.9,21.45-45.87,21.45-35.13,0-58.43-28.85-58.43-78.41,0-48.45,26.26-77.67,59.92-77.67,17,0,28.47,7,40.68,18.13l30-33.67c-16.28-16.64-41.43-31.43-71.39-31.43-62.13,0-115,46.6-115,126.49m-68.68,119.1h57.69l-75.81-241.16h-65.1L953.55,352.61H1009l14.79-57.33h74Zm-77.67-99.87,5.91-22.19c6.66-24,13.32-52.15,18.87-77.67h1.48c6.66,25.15,12.94,53.63,19.59,77.67l5.93,22.19ZM731.46,352.61h52.15V267.17c0-28.49-4.45-60.66-7-87.29h1.49l23.67,52.53,62.86,120.2h55.86V111.45H868.67v85.07c0,28.48,4.44,62.51,7,88h-1.48l-24-53.27L787.3,111.45H731.46Zm-203.68,0h155V306.75H582.53V251.26h82.1V205.77h-82.1V157.32h96.52V111.45H527.78Z"/>
      <rect class="cls-7" width="1480.09" height="458.28"/>
    </g>
  </g>
</svg>
